<?xml version="1.0" encoding="utf-8"?>
<!-- Generator: Adobe Illustrator 19.0.0, SVG Export Plug-In . SVG Version: 6.00 Build 0)  -->
<svg version="1.1" id="Layer_1" xmlns="http://www.w3.org/2000/svg" xmlns:xlink="http://www.w3.org/1999/xlink" x="0px" y="0px"
	 viewBox="-129 86.3 500 333.3" style="enable-background:new -129 86.3 500 333.3;" xml:space="preserve">
<style type="text/css">
	.st0{fill:#039BE5;}
	.st1{fill:#FFFFFF;}
	.st2{fill:#FFFFFF;stroke:#039BE5;stroke-width:2;stroke-miterlimit:10;}
</style>
<rect id="XMLID_1_" x="-129" y="86.3" class="st0" width="500" height="333.3"/>
<g>
	<g id="XMLID_2_">
		<path id="XMLID_205_" class="st1" d="M-37.6,233.2l9.3,37.5l9.3-37.5c-3,0.7-6.2,1.2-9.3,1.2S-34.6,233.8-37.6,233.2z"/>
		<path id="XMLID_204_" class="st1" d="M39.1,231.8l-27.8-27c-1.8,6.2-5.2,11.7-9.5,16.3L39.1,231.8z"/>
		<path id="XMLID_203_" class="st1" d="M10.8,125.7l-27,27.8c6.2,1.8,11.7,5.2,16.3,9.5L10.8,125.7z"/>
		<path id="XMLID_202_" class="st1" d="M39.1,154.2L1.8,164.8c4.3,4.5,7.5,10.2,9.5,16.3L39.1,154.2z"/>
		<path id="XMLID_201_" class="st1" d="M10.8,260.3L0.1,223c-4.5,4.3-10.2,7.5-16.3,9.5L10.8,260.3z"/>
		<circle id="XMLID_200_" class="st2" cx="-28.1" cy="193" r="35.5"/>
		<path id="XMLID_199_" class="st1" d="M-68.2,183.5l-37.5,9.5l37.5,9.3c-0.7-3-1.2-6.2-1.2-9.3C-69.4,189.7-68.9,186.7-68.2,183.5z
			"/>
		<path id="XMLID_198_" class="st1" d="M-18.7,152.8l-9.3-37.5l-9.3,37.5c3-0.7,6.2-1.2,9.3-1.2S-21.7,152.2-18.7,152.8z"/>
		<path id="XMLID_197_" class="st1" d="M11.9,202.3l37.5-9.3l-37.5-9.3c0.7,3,1.2,6.2,1.2,9.3C13.1,196.2,12.8,199.3,11.9,202.3z"/>
		<path id="XMLID_196_" class="st1" d="M-95.4,231.8l37.3-10.7c-4.3-4.5-7.5-10.2-9.5-16.3L-95.4,231.8z"/>
		<path id="XMLID_195_" class="st1" d="M-66.9,260.3l27-27.8c-6.2-1.8-11.7-5.2-16.3-9.5L-66.9,260.3z"/>
		<path id="XMLID_194_" class="st1" d="M-95.4,154.2l27.8,27c1.8-6.2,5.2-11.7,9.5-16.3L-95.4,154.2z"/>
		<path id="XMLID_193_" class="st1" d="M-66.9,125.7l10.7,37.3c4.5-4.3,10.2-7.5,16.3-9.5L-66.9,125.7z"/>
	</g>
	<g id="XMLID_7_">
		<g id="XMLID_18_">
			<rect id="XMLID_4_" x="81.1" y="194" class="st1" width="124.7" height="194"/>
			<g id="XMLID_14_">
				<g id="XMLID_20_">
					<rect id="XMLID_23_" x="96.8" y="314.7" class="st0" width="23" height="23"/>
					<rect id="XMLID_22_" x="131.9" y="314.7" class="st0" width="23" height="23"/>
					<rect id="XMLID_21_" x="167.1" y="314.7" class="st0" width="23" height="23"/>
				</g>
				<g id="XMLID_15_">
					<rect id="XMLID_19_" x="96.8" y="351.2" class="st0" width="23" height="23"/>
					<rect id="XMLID_17_" x="131.9" y="351.2" class="st0" width="23" height="23"/>
					<rect id="XMLID_16_" x="167.1" y="351.2" class="st0" width="23" height="23"/>
				</g>
			</g>
			<g id="XMLID_29_">
				<rect id="XMLID_32_" x="96.8" y="243.2" class="st0" width="23" height="23"/>
				<rect id="XMLID_31_" x="131.9" y="243.2" class="st0" width="23" height="23"/>
				<rect id="XMLID_30_" x="167.1" y="243.2" class="st0" width="23" height="23"/>
			</g>
			<g id="XMLID_25_">
				<rect id="XMLID_28_" x="96.8" y="279.5" class="st0" width="23" height="23"/>
				<rect id="XMLID_27_" x="131.9" y="279.5" class="st0" width="23" height="23"/>
				<rect id="XMLID_26_" x="167.1" y="279.5" class="st0" width="23" height="23"/>
			</g>
			<rect id="XMLID_36_" x="106.6" y="168.7" class="st1" width="73.8" height="30.3"/>
			<path id="XMLID_37_" class="st1" d="M143.8,184.8h-0.5c-2.5,0-4.7-2-4.7-4.7v-27.5c0-2.5,2-4.7,4.7-4.7h0.5c2.5,0,4.7,2,4.7,4.7
				v27.7C148.4,182.8,146.3,184.8,143.8,184.8z"/>
			<g id="XMLID_24_">
				<rect id="XMLID_35_" x="96.8" y="210.5" class="st0" width="23" height="23"/>
				<rect id="XMLID_34_" x="131.9" y="210.5" class="st0" width="23" height="23"/>
				<rect id="XMLID_33_" x="167.1" y="210.5" class="st0" width="23" height="23"/>
			</g>
		</g>
		<g id="XMLID_40_">
			<rect id="XMLID_74_" x="-29.6" y="300.8" class="st1" width="124.7" height="87.2"/>
			<g id="XMLID_41_">
				<g id="XMLID_67_">
					<rect id="XMLID_73_" x="-13.9" y="314.7" class="st0" width="23" height="23"/>
					<rect id="XMLID_72_" x="21.3" y="314.7" class="st0" width="23" height="23"/>
					<rect id="XMLID_68_" x="56.4" y="314.7" class="st0" width="23" height="23"/>
				</g>
				<g id="XMLID_42_">
					<rect id="XMLID_66_" x="-13.9" y="351.2" class="st0" width="23" height="23"/>
					<rect id="XMLID_65_" x="21.3" y="351.2" class="st0" width="23" height="23"/>
					<rect id="XMLID_43_" x="56.4" y="351.2" class="st0" width="23" height="23"/>
				</g>
			</g>
		</g>
	</g>
	<g>
		<path id="XMLID_103_" class="st1" d="M235.1,319.5c0-0.9,0-1.9,0-2.8c0-0.2,0.2-0.2,0.2-0.3c0.6-4.9,3-8.8,6.9-11.6
			c3.5-4.1,10.3-1.1,10.3-1.4c-0.3-7.7,2.3-14.6,9.9-16c1.7-0.3,3.6-0.3,5.3-0.5c0-0.2,0.2-0.5,0.2-0.6c1.4-5.7,4.7-9.4,10.1-11.6
			c1.3-0.5,2.7-0.8,3.9-1.1c1.3,0,2.5,0,3.8,0c0.2,0,0.2,0.2,0.3,0.2c3.6,0.5,6.8,2,9.3,4.7c0.9,1.1,1.9,2.2,2.7,3.3
			c0.2,0,0.2-0.2,0.3-0.2c8.8-4.6,22.7-1.1,26.8,7.9c0.3,0.5,0.6,0.6,1.1,0.8c9.8,1.4,16,11.5,12.9,20.8c-0.3,0.8-0.2,1.3,0.3,1.9
			c6.4,8.2,3.5,20.6-6.1,24.7c-0.8,0.3-1.1,0.8-1.3,1.6c-1.4,7.9-12,13.4-19.8,13.4c-3.3,0-6.3-0.9-9.1-2.8
			c-2.2,2.2-4.4,4.6-6.6,6.8c-0.2,0.2-0.2,0.3-0.3,0.6c-0.9,5.5-1.7,11.2-0.3,16.7c0.8,3.5,1.6,6.8,2.2,10.2c-6.6,0-13.2,0-19.7,0
			c0.2-0.8,0.5-1.7,0.6-2.5c1.9-7.5,3.5-15.3,2.7-23.1c-0.3-2.5-0.3-5-0.5-7.7c-1.9,0-3.6-0.8-5-1.6c-1.3-0.8-2.5-1.6-3.8-2.4
			c-0.6-0.5-1.1-0.5-1.7-0.2c-10.7,4.9-29.8-3.3-29.6-15.1c0-0.3-0.2-0.8-0.5-1.1c-2.4-2.2-4.1-4.7-4.9-7.9
			C235.6,321.4,235.4,320.5,235.1,319.5z M300.2,347.1c-2.2-2.5-3.5-5.3-4.1-8.5c-1.7,0.3-2.7,1.3-2.8,3c0,0.8-0.5,1.7-0.6,2.5
			c-0.2,1.7-0.5,3.3-0.5,5c0,1.7,0.9,2.2,2.5,1.6C296.9,349.7,298.5,348.5,300.2,347.1z M281.4,330.8c-0.2,0-0.2,8.1-0.3,8.1
			c1.3,2.2,2.5,4.2,3.9,6.4c0.3,0.5,0.8,1.1,1.3,1.4c0.9,0.8,1.6,0.6,2.2-0.3c1.1-1.9,5.9-12,6.4-14.2
			C291.6,332.7,284,332.2,281.4,330.8z M275.5,333.2c-1.1,1.4,1.1,8.9,0,10.3c1.9,1.1,3.6,2.4,6.3,2.4
			C280.7,343.5,276.6,335.4,275.5,333.2z"/>
		<g>
			
				<rect x="285.7" y="329.6" transform="matrix(0.9932 0.1162 -0.1162 0.9932 41.3255 -31.0155)" class="st1" width="1.9" height="18.5"/>
		</g>
		<path class="st1" d="M313.9,387.8c-0.8-4.2-11.9-7.6-25.6-7.6c-13.7,0-24.8,3.4-25.6,7.6H313.9z"/>
	</g>
</g>
</svg>
