<?xml version="1.0" encoding="utf-8"?>
<!-- Generator: Adobe Illustrator 19.0.0, SVG Export Plug-In . SVG Version: 6.00 Build 0)  -->
<svg version="1.1" id="Layer_1" xmlns="http://www.w3.org/2000/svg" xmlns:xlink="http://www.w3.org/1999/xlink" x="0px" y="0px"
	 viewBox="0 0 300 200" style="enable-background:new 0 0 300 200;" xml:space="preserve">
<style type="text/css">
	.st0{fill:#039BE5;}
	.st1{fill:#FFFFFF;}
	.st2{fill:#FFFFFF;stroke:#039BE5;stroke-width:2;stroke-miterlimit:10;}
</style>
<rect id="XMLID_1_" class="st0" width="300" height="200"/>
<g id="XMLID_2_">
	<path id="XMLID_205_" class="st1" d="M55.4,88.1l5.6,22.5l5.6-22.5c-1.8,0.4-3.7,0.7-5.6,0.7S57.2,88.5,55.4,88.1z"/>
	<path id="XMLID_204_" class="st1" d="M101.4,87.3L84.7,71.1c-1.1,3.7-3.1,7-5.7,9.8L101.4,87.3z"/>
	<path id="XMLID_203_" class="st1" d="M84.4,23.6L68.2,40.3c3.7,1.1,7,3.1,9.8,5.7L84.4,23.6z"/>
	<path id="XMLID_202_" class="st1" d="M101.4,40.7l-22.4,6.4c2.6,2.7,4.5,6.1,5.7,9.8L101.4,40.7z"/>
	<path id="XMLID_201_" class="st1" d="M84.4,104.4L78,82c-2.7,2.6-6.1,4.5-9.8,5.7L84.4,104.4z"/>
	<circle id="XMLID_200_" class="st2" cx="61.1" cy="64" r="21.3"/>
	<path id="XMLID_199_" class="st1" d="M37,58.3L14.5,64L37,69.6c-0.4-1.8-0.7-3.7-0.7-5.6C36.3,62,36.6,60.2,37,58.3z"/>
	<path id="XMLID_198_" class="st1" d="M66.7,39.9l-5.6-22.5l-5.6,22.5c1.8-0.4,3.7-0.7,5.6-0.7S64.9,39.5,66.7,39.9z"/>
	<path id="XMLID_197_" class="st1" d="M85.1,69.6l22.5-5.6l-22.5-5.6c0.4,1.8,0.7,3.7,0.7,5.6C85.8,65.9,85.6,67.8,85.1,69.6z"/>
	<path id="XMLID_196_" class="st1" d="M20.7,87.3l22.4-6.4c-2.6-2.7-4.5-6.1-5.7-9.8L20.7,87.3z"/>
	<path id="XMLID_195_" class="st1" d="M37.8,104.4l16.2-16.7c-3.7-1.1-7-3.1-9.8-5.7L37.8,104.4z"/>
	<path id="XMLID_194_" class="st1" d="M20.7,40.7l16.7,16.2c1.1-3.7,3.1-7,5.7-9.8L20.7,40.7z"/>
	<path id="XMLID_193_" class="st1" d="M37.8,23.6L44.2,46c2.7-2.6,6.1-4.5,9.8-5.7L37.8,23.6z"/>
</g>
<g id="XMLID_7_">
	<g id="XMLID_18_">
		<rect id="XMLID_4_" x="126.6" y="64.6" class="st1" width="74.8" height="116.4"/>
		<g id="XMLID_14_">
			<g id="XMLID_20_">
				<rect id="XMLID_23_" x="136" y="137" class="st0" width="13.8" height="13.8"/>
				<rect id="XMLID_22_" x="157.1" y="137" class="st0" width="13.8" height="13.8"/>
				<rect id="XMLID_21_" x="178.2" y="137" class="st0" width="13.8" height="13.8"/>
			</g>
			<g id="XMLID_15_">
				<rect id="XMLID_19_" x="136" y="158.9" class="st0" width="13.8" height="13.8"/>
				<rect id="XMLID_17_" x="157.1" y="158.9" class="st0" width="13.8" height="13.8"/>
				<rect id="XMLID_16_" x="178.2" y="158.9" class="st0" width="13.8" height="13.8"/>
			</g>
		</g>
		<g id="XMLID_29_">
			<rect id="XMLID_32_" x="136" y="94.1" class="st0" width="13.8" height="13.8"/>
			<rect id="XMLID_31_" x="157.1" y="94.1" class="st0" width="13.8" height="13.8"/>
			<rect id="XMLID_30_" x="178.2" y="94.1" class="st0" width="13.8" height="13.8"/>
		</g>
		<g id="XMLID_25_">
			<rect id="XMLID_28_" x="136" y="115.9" class="st0" width="13.8" height="13.8"/>
			<rect id="XMLID_27_" x="157.1" y="115.9" class="st0" width="13.8" height="13.8"/>
			<rect id="XMLID_26_" x="178.2" y="115.9" class="st0" width="13.8" height="13.8"/>
		</g>
		<rect id="XMLID_36_" x="141.9" y="49.4" class="st1" width="44.3" height="18.2"/>
		<path id="XMLID_37_" class="st1" d="M164.2,59.1h-0.3c-1.5,0-2.8-1.2-2.8-2.8V39.8c0-1.5,1.2-2.8,2.8-2.8h0.3
			c1.5,0,2.8,1.2,2.8,2.8v16.6C167,57.9,165.7,59.1,164.2,59.1z"/>
		<g id="XMLID_24_">
			<rect id="XMLID_35_" x="136" y="74.5" class="st0" width="13.8" height="13.8"/>
			<rect id="XMLID_34_" x="157.1" y="74.5" class="st0" width="13.8" height="13.8"/>
			<rect id="XMLID_33_" x="178.2" y="74.5" class="st0" width="13.8" height="13.8"/>
		</g>
	</g>
	<g id="XMLID_40_">
		<rect id="XMLID_74_" x="60.2" y="128.7" class="st1" width="74.8" height="52.3"/>
		<g id="XMLID_41_">
			<g id="XMLID_67_">
				<rect id="XMLID_73_" x="69.6" y="137" class="st0" width="13.8" height="13.8"/>
				<rect id="XMLID_72_" x="90.7" y="137" class="st0" width="13.8" height="13.8"/>
				<rect id="XMLID_68_" x="111.8" y="137" class="st0" width="13.8" height="13.8"/>
			</g>
			<g id="XMLID_42_">
				<rect id="XMLID_66_" x="69.6" y="158.9" class="st0" width="13.8" height="13.8"/>
				<rect id="XMLID_65_" x="90.7" y="158.9" class="st0" width="13.8" height="13.8"/>
				<rect id="XMLID_43_" x="111.8" y="158.9" class="st0" width="13.8" height="13.8"/>
			</g>
		</g>
	</g>
</g>
<path id="XMLID_103_" class="st1" d="M218.6,140c0-0.6,0-1.2,0-1.8c0-0.1,0.1-0.1,0.1-0.2c0.4-3.1,1.9-5.6,4.4-7.4
	c0.2-0.1,0.3-0.5,0.3-0.7c-0.2-4.9,3.4-9.5,8.2-10.4c1.1-0.2,2.3-0.2,3.4-0.3c0-0.1,0.1-0.3,0.1-0.4c0.9-3.6,3-6,6.4-7.4
	c0.8-0.3,1.7-0.5,2.5-0.7c0.8,0,1.6,0,2.4,0c0.1,0,0.1,0.1,0.2,0.1c2.3,0.3,4.3,1.3,5.9,3c0.6,0.7,1.2,1.4,1.7,2.1
	c0.1,0,0.1-0.1,0.2-0.1c5.6-2.9,11.9-0.7,14.5,5c0.2,0.3,0.4,0.4,0.7,0.5c6.2,0.9,10.2,7.3,8.2,13.2c-0.2,0.5-0.1,0.8,0.2,1.2
	c4.1,5.2,2.2,13.1-3.9,15.7c-0.5,0.2-0.7,0.5-0.8,1c-0.9,5-5.1,8.5-10.1,8.5c-2.1,0-4-0.6-5.8-1.8c-1.4,1.4-2.8,2.9-4.2,4.3
	c-0.1,0.1-0.1,0.2-0.2,0.4c-0.6,3.5-1.1,7.1-0.2,10.6c0.5,2.2,1,4.3,1.4,6.5c-4.2,0-8.4,0-12.5,0c0.1-0.5,0.3-1.1,0.4-1.6
	c1.2-4.8,2.2-9.7,1.7-14.7c-0.2-1.6-0.2-3.2-0.3-4.9c-1.2,0-2.3-0.5-3.2-1c-0.8-0.5-1.6-1-2.4-1.5c-0.4-0.3-0.7-0.3-1.1-0.1
	c-6.8,3.1-14.6-2.1-14.5-9.6c0-0.2-0.1-0.5-0.3-0.7c-1.5-1.4-2.6-3-3.1-5C218.9,141.2,218.8,140.6,218.6,140z M255.7,157.5
	c-1.4-1.6-2.2-3.4-2.6-5.4c-1.1,0.2-1.7,0.8-1.8,1.9c0,0.5-0.3,1.1-0.4,1.6c-0.1,1.1-0.3,2.1-0.3,3.2c0,1.1,0.6,1.4,1.6,1
	C253.6,159.2,254.6,158.4,255.7,157.5z M243.7,152.2c-0.1,0-0.1,0.1-0.2,0.1c0.8,1.4,1.6,2.7,2.5,4.1c0.2,0.3,0.5,0.7,0.8,0.9
	c0.6,0.5,1,0.4,1.4-0.2c0.7-1.2,0.9-2.6,1.2-4C247.3,153.4,245.4,153.1,243.7,152.2z M242,152.5c-0.7,0.9-1.3,1.8-2,2.7
	c1.2,0.7,2.3,1.5,4,1.5C243.3,155.2,242.7,153.9,242,152.5z"/>
</svg>
